#!OML:ASF F:\VICON\USERDATA\INSTALL\Justin_Nancy\Justin_Nancy.ASF
:FULLY-SPECIFIED
:DEGREES
236
root -11.1799 17.3984 4.84711 -190.967 -87.7945 192.542
lowerback 8.74793 0.122711 2.92432
upperback -0.0850722 0.548764 2.71446
thorax -5.00084 0.209571 1.11326
lowerneck -16.1568 -4.63017 -8.45382
upperneck 20.6149 -5.51133 4.67163
head 9.55387 -2.78416 2.28626
rclavicle 1.78906e-015 7.15625e-015
rhumerus -36.064 -20.2743 -74.5388
rradius 28.5654
rwrist 9.59334
rhand -18.4449 11.0271
rfingers 7.12502
rthumb 7.84095 -18.8075
lclavicle 1.78906e-015 7.15625e-015
lhumerus -31.5459 2.25452 89.2441
lradius 26.1675
lwrist -12.5926
lhand -12.5046 23.3709
lfingers 7.12502
lthumb 13.5707 52.9086
rfemur -21.2457 5.78803 24.6094
rtibia 34.1146
rfoot -11.5479 -6.99506
rtoes 23.8387
lfemur -10.6517 3.451 -20.6437
ltibia 66.163
lfoot -29.5854 -4.8509
ltoes -30.2698
237
root -11.3717 17.386 4.843 -195.086 -87.8527 196.73
lowerback 8.76225 0.166191 2.85505
upperback -0.152715 0.604798 2.73056
thorax -5.08059 0.238667 1.16212
lowerneck -16.0031 -4.58647 -8.51357
upperneck 20.4731 -5.46216 4.76207
head 9.47658 -2.75679 2.3365
rclavicle 6.4605e-015 1.82882e-014
rhumerus -35.4038 -20.6336 -74.6028
rradius 28.6953
rwrist 11.6027
rhand -16.8415 10.9915
rfingers 7.12502
rthumb 9.3883 -18.7794
lclavicle 6.4605e-015 1.82882e-014
lhumerus -31.7335 3.0975 88.894
lradius 25.837
lwrist -13.6782
lhand -12.5755 23.3696
lfingers 7.12502
lthumb 13.5024 52.9119
rfemur -20.673 5.49877 24.9771
rtibia 34.3532
rfoot -12.1693 -7.33257
rtoes 21.5933
lfemur -12.2092 3.89947 -20.2851
ltibia 66.7307
lfoot -27.5754 -2.96199
ltoes -29.5001
238
root -11.5843 17.3792 4.86508 -192.696 -87.7731 194.08
lowerback 8.87675 0.330817 2.88508
upperback -0.0985996 0.827796 2.67301
thorax -5.08696 0.34743 1.05562
lowerneck -15.9303 -4.6854 -8.58099
upperneck 20.6175 -5.58944 4.7142
head 9.52417 -2.83046 2.31474
rclavicle -2.98177e-015 -1.19271e-014
rhumerus -34.7778 -20.7367 -74.583
rradius 28.7301
rwrist 13.335
rhand -15.6033 10.9945
rfingers 7.12502
rthumb 10.5828 -18.719
lclavicle -2.98177e-015 -1.19271e-014
lhumerus -31.9441 3.48102 88.9389
lradius 25.6206
lwrist -13.9466
lhand -12.8832 24.2747
lfingers 7.12502
lthumb 13.2058 53.8365
rfemur -19.722 5.57048 24.8345
rtibia 34.6664
rfoot -13.1553 -7.21982
rtoes 23.0911
lfemur -13.258 4.09061 -20.5862
ltibia 66.9742
lfoot -25.5315 -1.58232
ltoes -23.3941
239
root -11.788 17.3612 4.87517 -197 -87.6157 198.212
lowerback 9.01904 0.492641 2.97221
upperback -0.0886898 1.06168 2.79855
thorax -5.15737 0.459885 1.10646
lowerneck -15.9455 -4.81434 -8.58509
upperneck 20.81 -5.71394 4.43674
head 9.59627 -2.92192 2.20115
rclavicle 4.47266e-015 -6.36111e-015
rhumerus -33.9776 -18.9818 -75.0924
rradius 28.8839
rwrist 11.8092
rhand -15.7696 11.6946
rfingers 7.12502
rthumb 10.4224 -18.027
lclavicle 4.47266e-015 -6.36111e-015
lhumerus -32.173 4.50133 89.0029
lradius 25.3877
lwrist -13.8176
lhand -13.9355 25.1656
lfingers 7.12502
lthumb 12.1913 54.7903
rfemur -18.9166 5.50194 25.0976
rtibia 35.0233
rfoot -14.1683 -6.99937
rtoes 24.2932
lfemur -14.396 4.39016 -20.4503
ltibia 67.0931
lfoot -23.498 -0.151537
ltoes -21.5117
240
root -11.9841 17.334 4.88505 -203.253 -87.3505 204.411
lowerback 9.03501 0.627509 3.17258
upperback -0.0234476 1.2612 2.90722
thorax -5.09606 0.553374 1.08106
lowerneck -16.2341 -4.85111 -8.57713
upperneck 21.0955 -5.75835 4.45259
head 9.75398 -2.93894 2.19463
rclavicle 1.03368e-014 8.74653e-015
rhumerus -33.0547 -17.3346 -75.7244
rradius 29.236
rwrist 10.2252
rhand -15.3922 11.6783
rfingers 7.12502
rthumb 10.7864 -18.0247
lclavicle 1.03368e-014 8.74653e-015
lhumerus -32.2509 6.1519 88.4939
lradius 25.0135
lwrist -14.5643
lhand -14.0363 24.6296
lfingers 7.12502
lthumb 12.0941 54.2601
rfemur -18.3054 5.4041 25.653
rtibia 35.4482
rfoot -14.8853 -7.47503
rtoes 21.1541
lfemur -15.673 4.87758 -20.0561
ltibia 67.0427
lfoot -23.6497 1.39492
ltoes -22.7661
241
root -12.1673 17.3014 4.87712 -210.365 -86.9761 212.447
lowerback 8.19354 0.733497 3.2104
upperback -0.221459 1.37942 3.12947
thorax -4.83388 0.61505 1.28495
lowerneck -16.619 -4.76466 -8.72102
upperneck 21.4451 -5.64948 4.73878
head 9.95495 -2.8663 2.32917
rclavicle -6.4605e-015 -1.66979e-014
rhumerus -32.0368 -16.5934 -76.3126
rradius 29.548
rwrist 9.47372
rhand -14.9074 11.2251
rfingers 7.12502
rthumb 11.254 -18.453
lclavicle -6.4605e-015 -1.66979e-014
lhumerus -32.4209 7.96045 87.8137
lradius 24.9096
lwrist -15.2942
lhand -13.2699 23.7752
lfingers 7.12502
lthumb 12.833 53.3608
rfemur -18.7833 5.49699 26.4343
rtibia 35.8975
rfoot -15.4168 -8.02761
rtoes 18.4067
lfemur -18.131 5.65703 -19.3142
ltibia 66.9277
lfoot -22.4013 2.70218
ltoes -24.3038
242
root -12.3624 17.2644 4.87264 -212.587 -86.7638 214.922
lowerback 7.92847 0.866371 3.12756
upperback -0.251338 1.53886 3.22168
thorax -4.72049 0.697679 1.41144
lowerneck -16.7066 -4.787 -8.95624
upperneck 21.511 -5.67755 5.00859
head 10.0129 -2.86691 2.45839
rclavicle -3.37934e-015 5.56597e-015
rhumerus -31.1748 -15.2316 -77.0116
rradius 29.9904
rwrist 7.21604
rhand -15.4228 10.9268
rfingers 7.12502
rthumb 10.7569 -18.7778
lclavicle -3.37934e-015 5.56597e-015
lhumerus -32.7743 9.18401 87.417
lradius 25.0837
lwrist -15.3992
lhand -13.0401 23.249
lfingers 7.12502
lthumb 13.0545 52.8204
rfemur -18.4608 5.65302 26.8365
rtibia 36.3215
rfoot -16.0445 -8.31881
rtoes 17.2972
lfemur -19.6944 6.13158 -19.0111
ltibia 66.4976
lfoot -20.1799 3.69378
ltoes -25.4702
243
root -12.5801 17.2241 4.91578 -216.568 -86.9048 217.932
lowerback 8.76069 0.816168 3.68884
upperback 0.0125565 1.54968 3.06888
thorax -4.89427 0.684513 0.926288
lowerneck -16.5717 -4.847 -8.83687
upperneck 21.3044 -5.79289 5.0029
head 9.91875 -2.91 2.42148
rclavicle -1.27222e-014 -1.98785e-014
rhumerus -30.6489 -12.8514 -77.6605
rradius 30.6077
rwrist 5.09309
rhand -16.1568 10.9274
rfingers 7.12502
rthumb 10.0489 -18.8127
lclavicle -1.27222e-014 -1.98785e-014
lhumerus -33.0705 9.18793 87.2781
lradius 25.0054
lwrist -14.6048
lhand -13.3232 23.389
lfingers 7.12502
lthumb 12.7816 52.9777
rfemur -16.9052 4.90948 26.9378
rtibia 36.7562
rfoot -16.1772 -9.31019
rtoes 9.38507
lfemur -19.8596 5.50219 -19.4539
ltibia 65.8095
lfoot -16.9736 4.25341
ltoes -25.7299
244
root -12.7992 17.1778 4.84542 -218.458 -86.4895 219.082
lowerback 9.29628 0.941106 2.62745
upperback 0.216434 1.63555 3.41116
thorax -5.02112 0.753062 1.86208
lowerneck -16.1809 -4.68638 -8.39297
upperneck 20.807 -5.62243 4.70853
head 9.63296 -2.82869 2.27397
rclavicle 1.15295e-014 1.59028e-015
rhumerus -30.1439 -10.4458 -78.3813
rradius 31.1609
rwrist 3.75656
rhand -16.4262 10.7546
rfingers 7.12502
rthumb 9.789 -18.9978
lclavicle 1.15295e-014 1.59028e-015
lhumerus -33.5117 9.66755 86.8702
lradius 25.0255
lwrist -13.6812
lhand -13.7272 24.1226
lfingers 7.12502
lthumb 12.3922 53.7352
rfemur -15.2502 6.1924 27.9765
rtibia 37.19
rfoot -16.3054 -11.7834
rtoes 2.68501
lfemur -19.9164 6.63457 -18.53
ltibia 64.867
lfoot -15.7971 5.67959
ltoes -25.7047
245
root -13.0108 17.1354 4.7984 -221.904 -86.1595 222.072
lowerback 9.58229 1.04387 1.87893
upperback 0.393703 1.70673 3.77887
thorax -5.03117 0.806483 2.65672
lowerneck -16.1386 -4.57475 -8.25065
upperneck 20.5766 -5.43273 4.46402
head 9.51903 -2.753 2.19171
rclavicle 1.83876e-014 5.64548e-014
rhumerus -29.5181 -8.30928 -79.0287
rradius 31.7659
rwrist 2.39427
rhand -16.9981 10.3544
rfingers 7.12502
rthumb 9.23717 -19.4233
lclavicle 1.83876e-014 5.64548e-014
lhumerus -34.0144 10.2104 86.6847
lradius 25.5208
lwrist -12.3776
lhand -14.2514 25.3154
lfingers 7.12502
lthumb 11.8867 54.958
rfemur -13.917 7.65785 28.7704
rtibia 37.6272
rfoot -17.3931 -12.826
rtoes 5.27683
lfemur -20.3641 7.41864 -17.7902
ltibia 63.7773
lfoot -15.2285 6.7
ltoes -25.5193
